<?xml version="1.0" standalone="no"?>
<!DOCTYPE svg PUBLIC "-//W3C//DTD SVG 20010904//EN"
 "http://www.w3.org/TR/2001/REC-SVG-20010904/DTD/svg10.dtd">
<svg version="1.0" xmlns="http://www.w3.org/2000/svg"
 width="980.000000pt" height="982.000000pt" viewBox="0 0 980.000000 982.000000"
 preserveAspectRatio="xMidYMid meet">

<g transform="translate(0.000000,982.000000) scale(0.100000,-0.100000)"
fill="#45e118" stroke="none">
<path d="M4595 9804 c-22 -2 -92 -9 -155 -15 -877 -81 -1756 -423 -2475 -964
-1532 -1152 -2255 -3078 -1853 -4940 16 -77 54 -223 83 -325 366 -1261 1198
-2303 2350 -2941 540 -299 1149 -496 1770 -573 458 -57 993 -43 1444 40 315
57 718 172 946 268 154 66 545 261 695 347 686 393 1355 1071 1740 1763 105
189 272 534 338 696 354 882 419 1996 172 2956 -265 1027 -864 1956 -1691
2618 -511 410 -1201 758 -1812 916 -231 59 -485 104 -772 136 -132 15 -685 27
-780 18z m701 -569 c1642 -156 3046 -1209 3647 -2735 205 -519 299 -1022 299
-1595 -1 -433 -52 -799 -168 -1202 -295 -1021 -971 -1912 -1888 -2485 -163
-103 -508 -277 -681 -345 -401 -158 -772 -247 -1192 -288 -186 -19 -592 -21
-768 -5 -584 53 -1094 198 -1600 454 -1034 524 -1808 1424 -2172 2526 -88 266
-153 568 -190 878 -22 185 -25 715 -5 897 95 876 418 1652 968 2329 124 152
423 453 574 578 711 588 1525 921 2445 1001 123 11 587 6 731 -8z"/>
<path d="M4710 7521 c-224 -72 -409 -261 -476 -486 -31 -104 -24 -218 77
-1380 99 -1141 143 -1569 171 -1642 68 -184 287 -308 484 -275 89 15 202 70
258 125 81 81 102 146 136 413 33 263 150 1558 206 2284 32 413 30 444 -39
584 -98 196 -254 325 -455 377 -100 25 -283 26 -362 0z"/>
<path d="M4754 3301 c-211 -60 -393 -320 -371 -531 27 -255 269 -480 516 -480
132 0 256 55 361 160 190 190 211 437 56 655 -49 68 -122 132 -189 164 -108
52 -259 65 -373 32z"/>
</g>
</svg>
