<svg width="356" height="139.52946568243587" viewBox="0 0 356 139.52946568243587" class="css-1j8o68f"><defs id="SvgjsDefs4594"></defs><g id="SvgjsG4595" featurekey="symbolFeature-0" transform="matrix(1.607019528783994,0,0,1.607019528783994,-30.350173370816396,-11.53036465925318)" fill="#ffffff"><g xmlns="http://www.w3.org/2000/svg"><path fill="none" d="M56.548,43.709c-1.119,1.104-2.364,1.978-3.691,2.503c-0.9,0.358-1.841,0.556-2.807,0.556   c-0.967,0-1.907-0.197-2.808-0.556c-1.339-0.531-2.594-1.417-3.723-2.534h-0.001c0,1.376-1.051,2.161-1.764,2.534   c-0.085,0.045-0.166,0.083-0.238,0.117c-0.179,0.08-0.314,0.129-0.373,0.148c0.042,0.354,0.199,0.694,0.45,1.016   c1.181,1.509,4.498,3.689,8.407,3.689s7.226-2.18,8.407-3.689c0.252-0.322,0.408-0.662,0.45-1.016   c0.002-0.011,0.002-0.021,0.001-0.03c-0.48-0.177-2.261-0.955-2.289-2.729C56.563,43.717,56.556,43.713,56.548,43.709z"></path><path fill="none" d="M28.108,90.208H71.89c1.634,0,2.956-1.309,2.956-2.922l5.97-27.247c0-1.612-1.324-2.922-2.955-2.922h-2.411   h-1.13h-0.566H26.245H22.14c-1.633,0-2.957,1.309-2.957,2.922l5.97,27.247C25.153,88.899,26.476,90.208,28.108,90.208z M50,72.339   c0.877,0,1.587,0.71,1.587,1.586c0,0.877-0.71,1.587-1.587,1.587c-0.876,0-1.587-0.71-1.587-1.587   C48.413,73.049,49.124,72.339,50,72.339z"></path><path fill="none" d="M40.088,35.436c0.19,0.191,0.389,0.286,0.578,0.252c0.09-0.016,0.174-0.061,0.249-0.131   c0.912,2.837,2.653,5.665,4.851,7.372c1.295,1.007,2.749,1.624,4.286,1.624c1.525,0,2.972-0.61,4.26-1.605   c2.208-1.704,3.96-4.542,4.875-7.39c0.075,0.07,0.158,0.115,0.248,0.131c0.164,0.029,0.334-0.037,0.499-0.178   c0.416-0.352,0.807-1.175,0.984-2.175c0.234-1.304,0.025-2.447-0.465-2.676c-0.036-0.017-0.072-0.03-0.112-0.037l-1.114,1.074   L45.5,24.63c-4.489-0.416-5.201,5.58-5.256,6.115c-0.003,0.023-0.003,0.037-0.003,0.038h-0.001   c-0.159-0.129-0.322-0.188-0.478-0.162c-0.068,0.012-0.132,0.041-0.191,0.083c-0.434,0.311-0.608,1.398-0.389,2.629   C39.35,34.271,39.702,35.051,40.088,35.436z"></path><circle cx="50" cy="73.925" r="1.586"></circle><path d="M74.869,91.446H25.131c-0.701,0-1.268,0.572-1.268,1.277S24.43,94,25.131,94h49.738c0.7,0,1.266-0.573,1.266-1.278   C76.134,92.019,75.567,91.446,74.869,91.446z"></path><path d="M27.839,90.69h44.32c1.648,0,2.985-1.335,2.985-2.984l5.969-28.088c0-1.647-1.336-2.983-2.985-2.983H75.52h-1.269h-0.646   c-2.747-8.873-7.61-9.194-8.67-9.442c-0.126-0.029-0.253-0.056-0.381-0.081c-3.278-3.029-1.041-15.678-1.041-15.678   c0-4.033-0.575-7.129-1.479-9.52l-0.425-4.27l1.42-0.822l0.721-0.416l3.012-1.744c0.188-0.189,0.188-0.493,0-0.681L50.745,7.316   c-0.189-0.188-0.494-0.188-0.682,0l-16.019,6.666c-0.188,0.188-0.188,0.492,0,0.681l1.194,0.69l-0.076,1.054   c-0.41,0.07-0.723,0.425-0.723,0.855c0,0.387,0.253,0.715,0.603,0.826l-0.699,9.786l0.965,2.894l0.965-2.894l-0.699-9.786   c0.35-0.113,0.602-0.439,0.602-0.826c0-0.43-0.313-0.785-0.722-0.855l-0.069-0.97l1.671,0.969l0.068,0.038l1.326,0.769   l-0.337,4.304c-0.99,2.44-1.627,5.662-1.627,9.917c0,0,2.238,12.648-1.041,15.678c-0.129,0.025-0.255,0.052-0.38,0.081   c-1.062,0.248-5.923,0.569-8.671,9.442H21.87c-1.648,0-2.984,1.336-2.984,2.983l5.969,28.089   C24.854,89.355,26.19,90.69,27.839,90.69z M39.571,30.705c0.059-0.042,0.123-0.071,0.191-0.083   c0.156-0.027,0.318,0.033,0.478,0.162h0.001c0-0.001,0-0.015,0.003-0.038c0.055-0.535,0.767-6.531,5.256-6.115l13.726,7.066   l1.114-1.074c0.04,0.007,0.076,0.02,0.112,0.037c0.49,0.229,0.699,1.372,0.465,2.676c-0.178,1-0.568,1.824-0.984,2.175   c-0.165,0.141-0.335,0.207-0.499,0.178c-0.09-0.016-0.173-0.061-0.248-0.131c-0.915,2.848-2.667,5.686-4.875,7.39   c-1.288,0.996-2.734,1.605-4.26,1.605c-1.537,0-2.991-0.617-4.286-1.624c-2.198-1.707-3.938-4.534-4.851-7.372   c-0.075,0.07-0.158,0.115-0.249,0.131c-0.189,0.033-0.388-0.061-0.578-0.252c-0.386-0.385-0.738-1.165-0.906-2.101   C38.963,32.104,39.137,31.016,39.571,30.705z M58.858,46.449c0.001,0.009,0.001,0.019-0.001,0.03   c-0.042,0.354-0.198,0.694-0.45,1.016c-1.182,1.509-4.498,3.689-8.407,3.689s-7.227-2.18-8.407-3.689   c-0.251-0.322-0.408-0.662-0.45-1.016c0.059-0.02,0.194-0.069,0.373-0.148c0.073-0.034,0.153-0.072,0.238-0.117   c0.713-0.373,1.764-1.158,1.764-2.534h0.001c1.129,1.117,2.383,2.002,3.723,2.534c0.901,0.359,1.841,0.556,2.808,0.556   c0.966,0,1.906-0.198,2.807-0.556c1.327-0.526,2.572-1.399,3.691-2.503c0.008,0.004,0.016,0.007,0.021,0.011   C56.598,45.494,58.378,46.271,58.858,46.449z M22.14,57.117h4.105h47.508h0.566h1.13h2.411c1.631,0,2.955,1.31,2.955,2.922   l-5.97,27.247c0,1.613-1.322,2.922-2.956,2.922H28.108c-1.633,0-2.956-1.309-2.956-2.922l-5.97-27.247   C19.183,58.426,20.507,57.117,22.14,57.117z"></path></g></g><g id="SvgjsG4596" featurekey="textGroupContainer" transform="matrix(1,0,0,1,355,34)" fill="#ffffff"><rect xmlns="http://www.w3.org/2000/svg" y="0" height="1" width="1" opacity="0"></rect><rect xmlns="http://www.w3.org/2000/svg" y="0" x="-235" width="3" height="72"></rect></g><g id="SvgjsG4597" featurekey="vMvB0T-0" transform="matrix(2.543882121868474,0,0,2.543882121868474,134.13329558422805,36.63495329397334)" fill="#ffffff"><path d="M11.32 10.56 q0 0.66 -0.2 1.25 t-0.53 1.06 t-0.78 0.82 t-0.93 0.53 q1.04 0.38 1.54 1.84 l0.6 1.7 q0.34 1 1 1.48 q-0.3 0.4 -0.9 0.67 t-1.32 0.27 t-1.12 -0.41 t-0.74 -1.43 l-0.72 -2.1 q-0.22 -0.6 -0.59 -0.92 t-1.11 -0.32 l-0.82 0 l0 5 q-0.64 0.12 -1.6 0.12 t-1.58 -0.12 l0 -13.56 l0.14 -0.14 q1.74 -0.04 2.93 -0.06 t1.87 -0.02 q1.1 0 2 0.27 t1.53 0.81 t0.98 1.36 t0.35 1.9 z M4.7 8.62 l0 3.92 q0.9 0 1.54 -0.03 t1.03 -0.24 t0.59 -0.59 t0.2 -1.1 q0 -1.94 -1.88 -1.94 l-0.83 0 t-0.65 -0.02 z M12.600000000000001 18.82 q0.06 -0.66 0.41 -1.32 t0.83 -1.08 q2.14 1.3 4.06 1.3 q0.84 0 1.23 -0.38 t0.39 -0.94 q0 -0.94 -1.26 -1.48 l-2.36 -1 q-1.38 -0.62 -2.12 -1.49 t-0.74 -2.21 q0 -0.92 0.37 -1.68 t1.04 -1.32 t1.59 -0.87 t2.04 -0.31 q2.24 0 4.52 1.14 q-0.1 1.54 -1.08 2.4 q-2.04 -0.98 -3.6 -0.98 q-0.8 0 -1.2 0.36 t-0.4 0.82 q0 0.78 1.18 1.26 l2.4 1.02 q1.52 0.64 2.27 1.64 t0.75 2.32 q0 0.94 -0.34 1.72 t-1.01 1.35 t-1.67 0.89 t-2.34 0.32 q-2.6 0 -4.96 -1.48 z M30.020000000000003 15.86 l-5.64 0 q-0.12 -0.5 -0.12 -1.25 t0.12 -1.25 l5.64 0 q0.12 0.5 0.12 1.25 t-0.12 1.25 z M37.54 17.3 l3.46 0 q0 0.8 -0.1 1.37 t-0.64 0.98 t-1.42 0.41 l-4.52 0 q-0.86 0 -1.36 -0.5 t-0.5 -1.36 l0 -11.86 l0.14 -0.14 l1.18 0 q1.88 0 1.88 2.04 l0 9.14 q0.88 -0.08 1.88 -0.08 z M46.239999999999995 17.14 q-0.54 0 -0.8 -0.02 l-0.86 2.9 q-0.48 0.12 -1.34 0.12 q-0.96 0 -1.56 -0.22 l-0.1 -0.16 l4.4 -13.42 q0.78 -0.12 1.82 -0.12 q1.18 0 1.88 0.14 l4.32 13.44 q-0.7 0.38 -1.58 0.38 q-1.04 0 -1.46 -0.36 t-0.72 -1.38 l-0.38 -1.32 q-0.26 0.02 -0.78 0.02 l-2.84 0 z M46.18 14.620000000000001 l0.8 -0.02 l1.46 0 q0.1 0 0.35 0.01 t0.37 0.01 l-0.34 -1.24 q-0.48 -1.68 -1.1 -4.12 l-0.12 0 q-0.16 0.86 -0.96 3.82 z M66.44 6.199999999999999 l0.14 0.14 l0 13.6 q-0.8 0.18 -1.89 0.18 t-1.93 -0.12 l-3.14 -7.16 q-0.56 -1.22 -1.14 -2.82 l-0.06 0.02 q0.24 2.92 0.24 5.98 l0 3.98 q-0.62 0.12 -1.5 0.12 t-1.48 -0.12 l0 -13.6 q0.76 -0.18 1.83 -0.18 t1.91 0.12 l3.1 7.14 q0.84 1.98 1.24 3.04 l0.08 -0.04 q-0.24 -2.78 -0.24 -5.9 l0 -2.44 q0 -1.04 0.42 -1.49 t1.36 -0.45 l1.06 0 z M74.88 12.24 l3.14 -0.02 q2.12 0 2.12 2 l0 5.26 q-2.58 0.82 -5.42 0.82 q-1.44 0 -2.55 -0.48 t-1.86 -1.38 t-1.13 -2.21 t-0.38 -2.97 q0 -1.82 0.53 -3.17 t1.42 -2.25 t2.05 -1.35 t2.42 -0.45 q2.6 0 4.88 1.44 q-0.02 0.32 -0.15 0.65 t-0.32 0.64 t-0.44 0.56 t-0.51 0.43 q-1.66 -1.08 -3.36 -1.08 q-3.26 0 -3.26 4.56 q0 4.54 3.34 4.54 q0.46 0 0.89 -0.04 t0.85 -0.12 l0 -1.34 q0 -0.46 0.01 -0.8 t0.03 -0.58 l-1 0 q-0.86 0 -1.19 -0.33 t-0.33 -1.03 q0 -0.6 0.22 -1.3 z"></path></g></svg>